<?xml version="1.0" encoding="UTF-8"?>
<svg width="17px" height="15px" viewBox="0 0 17 15" version="1.1" xmlns="http://www.w3.org/2000/svg" xmlns:xlink="http://www.w3.org/1999/xlink">
    <!-- Generator: Sketch 40.1 (33804) - http://www.bohemiancoding.com/sketch -->
    <title>Google Icon</title>
    <desc>Created with Sketch.</desc>
    <defs></defs>
    <g id="Symbols" stroke="none" stroke-width="1" fill="none" fill-rule="evenodd">
        <g id="Header-#8" transform="translate(-1303.000000, -126.000000)" fill="#B2B2B2">
            <g id="Group-2" transform="translate(1191.000000, 126.000000)">
                <path d="M118.87,3.82 C118.68,2.35 117.61,1.17 116.49,1.14 C115.37,1.1 114.62,2.23 114.81,3.7 C115,5.17 116.07,6.39 117.19,6.42 C118.31,6.45 119.07,5.29 118.87,3.82 L118.87,3.82 Z M117.04,9.27 C115.37,9.26 113.87,10.29 113.87,11.53 C113.87,12.8 115.08,13.86 116.75,13.86 C119.1,13.86 119.92,12.86 119.92,11.6 C119.92,11.44 119.9,11.29 119.87,11.15 C119.68,10.43 119.03,10.08 118.13,9.45 C117.8,9.34 117.43,9.28 117.04,9.27 L117.04,9.27 Z M119.03,1.1 C119.95,1.82 120.44,2.58 120.44,3.67 C120.44,4.59 119.93,5.44 119.21,6 C118.51,6.55 118.37,6.78 118.37,7.25 C118.37,7.64 119.12,8.32 119.52,8.6 C120.67,9.41 121.04,10.16 121.04,11.42 C121.04,12.99 119.52,14.55 116.76,14.55 C114.34,14.55 112.3,13.57 112.3,12 C112.3,10.4 114.16,8.87 116.58,8.87 L117.34,8.86 C117.01,8.54 116.74,8.14 116.74,7.65 C116.74,7.37 116.84,7.08 116.97,6.83 C116.83,6.84 116.7,6.83 116.56,6.83 C114.58,6.83 113.25,5.38 113.25,3.63 C113.25,1.92 115.08,0.37 117.03,0.37 L121.39,0.37 L120.41,1.1 L119.03,1.1 L119.03,1.1 Z M125.87,3.98 L125.87,6.87 L125.15,6.87 L125.15,3.98 L122.25,3.98 L122.25,3.26 L125.15,3.26 L125.15,0.37 L125.87,0.37 L125.87,3.26 L128.76,3.26 L128.76,3.98 L125.87,3.98 L125.87,3.98 Z" id="Google-Icon"></path>
            </g>
        </g>
    </g>
</svg>