<?xml version="1.0" encoding="UTF-8"?>
<svg width="16px" height="14px" viewBox="0 0 16 14" version="1.1" xmlns="http://www.w3.org/2000/svg" xmlns:xlink="http://www.w3.org/1999/xlink">
    <!-- Generator: Sketch 40.1 (33804) - http://www.bohemiancoding.com/sketch -->
    <title>Twitter Icon</title>
    <desc>Created with Sketch.</desc>
    <defs></defs>
    <g id="Symbols" stroke="none" stroke-width="1" fill="none" fill-rule="evenodd">
        <g id="Header-#8" transform="translate(-1245.000000, -126.000000)" fill="#B2B2B2">
            <g id="Group-2" transform="translate(1191.000000, 126.000000)">
                <path d="M69.89,2.27 C69.32,2.52 68.7,2.69 68.05,2.77 C68.71,2.38 69.22,1.75 69.46,1 C68.84,1.37 68.16,1.63 67.43,1.78 C66.84,1.16 66.01,0.77 65.09,0.77 C63.32,0.77 61.88,2.2 61.88,3.97 C61.88,4.22 61.91,4.46 61.96,4.69 C59.3,4.56 56.94,3.29 55.36,1.35 C55.08,1.83 54.92,2.38 54.92,2.96 C54.92,4.07 55.49,5.05 56.35,5.62 C55.82,5.61 55.33,5.46 54.9,5.22 L54.9,5.26 C54.9,6.81 56,8.1 57.47,8.4 C57.2,8.47 56.92,8.51 56.62,8.51 C56.42,8.51 56.22,8.49 56.02,8.45 C56.43,9.72 57.61,10.65 59.01,10.67 C57.92,11.53 56.54,12.04 55.03,12.04 C54.78,12.04 54.52,12.03 54.27,12 C55.69,12.9 57.37,13.43 59.18,13.43 C65.08,13.43 68.3,8.56 68.3,4.34 L68.29,3.92 C68.92,3.47 69.46,2.91 69.89,2.27" id="Twitter-Icon"></path>
            </g>
        </g>
    </g>
</svg>